<?xml version="1.0" encoding="utf-8"?>
<!-- Generator: Adobe Illustrator 24.0.1, SVG Export Plug-In . SVG Version: 6.00 Build 0)  -->
<svg version="1.1" id="Layer_1" xmlns="http://www.w3.org/2000/svg" xmlns:xlink="http://www.w3.org/1999/xlink" x="0px" y="0px"
	 viewBox="0 0 158.3 47.5" style="enable-background:new 0 0 158.3 47.5;" xml:space="preserve">
<style type="text/css">
	.st0{fill:#FDFDFD;}
	.st1{fill:#043136;}
	.st2{fill:#C0132F;}
</style>
<g>
	<path class="st0" d="M79.2,1.1c23.3,0,46.5,0,69.8,0c1.1,0,2.3,0.1,3.4,0.4c2.1,0.5,4.5,2.4,4.8,5.8c0.1,1,0.1,2,0.1,3
		c0,9.3,0,18.6,0,28c0,1.1-0.1,2.2-0.4,3.3c-0.7,2.7-3,4.6-5.8,4.8c-1.1,0.1-2.2,0.1-3.4,0.1c-46,0-92,0-137.9,0
		c-1.2,0-2.5-0.1-3.7-0.4c-2.4-0.6-4.6-2.6-4.9-5.9c-0.1-1.2-0.1-2.4-0.1-3.6c0-9.2,0-18.3,0-27.5c0-1.2,0.1-2.4,0.5-3.6
		c1-2.6,2.9-4,5.5-4.3C8.1,1.1,9,1.1,10,1.1C33,1.1,56.1,1.1,79.2,1.1z M25.5,8.6c-2.3,0-4.7,0-7,0c-1.3,0-2.5,0.1-3.7,0.5
		c-2,0.6-3.3,1.8-3.9,3.8c-0.3,1-0.5,2.1-0.5,3.1c-0.1,5.1,0,10.2,0,15.4c0,0.8,0.1,1.6,0.3,2.4c0.5,2.6,2,4.2,4.6,4.7
		c1.1,0.2,2.2,0.3,3.3,0.3c4.6,0,9.1,0,13.7,0c1.1,0,2.2-0.1,3.2-0.3c2.5-0.5,4.2-2,4.7-4.6c0.2-1,0.4-2.1,0.4-3.2c0-4.7,0-9.3,0-14
		c0-0.9-0.1-1.9-0.3-2.8c-0.5-2.7-2-4.4-4.8-5c-1-0.2-2.1-0.3-3.1-0.3C30.1,8.6,27.8,8.6,25.5,8.6z M96.8,34.8c0-2,0-3.9,0-5.8
		c-1.9,0-3.7,0-5.4,0c0,0.6,0,1.2,0,1.9c1.1,0,2.1,0,3.1,0c0,0.9,0,1.8,0,2.7c-1,0.4-2.1,0.5-3.2,0.4c-1.8-0.2-3-1.2-3.5-2.9
		c-0.4-1.2-0.4-2.5-0.1-3.7c0.4-2,1.7-3.2,3.7-3.5c1.3-0.2,2.5,0.1,3.7,0.5c0.3,0.1,0.5,0.2,0.8,0.3c0.2-0.7,0.4-1.3,0.6-1.9
		c-1.8-0.9-3.7-1.2-5.6-0.9c-2.7,0.4-4.7,1.9-5.5,4.7c-0.4,1.3-0.4,2.7-0.2,4.1c0.5,2.5,1.9,4.3,4.4,5c1.3,0.4,2.7,0.3,4,0.1
		C94.6,35.7,95.7,35.4,96.8,34.8z M76.9,35.7c0.5,0.1,1,0.2,1.4,0.2c2.4,0.3,4.4-0.9,5.2-3.2c0.5-1.5,0.5-3.1,0.1-4.6
		c-0.4-1.4-1.3-2.4-2.8-2.8c-1.2-0.2-2.2,0-3.2,0.7c-0.2,0.2-0.4,0.3-0.7,0.5c-0.1-0.4-0.2-0.8-0.2-1.1c-0.8,0-1.5,0-2.2,0
		c0,4.8,0,9.6,0,14.5c0.8-0.1,1.6-0.1,2.4-0.2C76.9,38.5,76.9,37.1,76.9,35.7z M62.7,35.7c-1.9-4.6-3.7-9.2-5.5-13.7
		c-0.8,0-1.6,0-2.4,0c-1.8,4.6-3.6,9.1-5.4,13.7c0.9,0,1.7,0,2.5,0c0.5-1.2,0.9-2.4,1.3-3.6c1.8,0,3.6,0,5.4,0
		c0.5,1.2,0.9,2.4,1.4,3.6C61,35.7,61.8,35.7,62.7,35.7z M66.1,35.7c0.5,0.1,1,0.2,1.4,0.2c2.2,0.2,4.2-0.7,5-2.9
		c0.6-1.6,0.6-3.2,0.2-4.9c-0.8-2.9-3.9-3.8-6.2-1.9c-0.1,0.1-0.3,0.2-0.4,0.3c-0.1-0.4-0.1-0.7-0.2-1.1c-0.8,0-1.5,0-2.2,0
		c0,4.8,0,9.6,0,14.5c0.8-0.1,1.6-0.1,2.4-0.2C66.1,38.5,66.1,37.1,66.1,35.7z M137.6,39.8c0.9,0.3,1.6,0.3,2.4,0.3
		c1.4-0.1,2.5-0.7,3.2-1.9c0.4-0.7,0.8-1.4,1-2.2c1.2-3.2,2.4-6.5,3.6-9.7c0.1-0.2,0.1-0.4,0.2-0.6c-0.8,0-1.6,0-2.4,0
		c-0.8,2.5-1.6,5-2.5,7.6c-0.8-2.6-1.6-5.1-2.5-7.6c-0.9,0-1.7,0-2.6,0c0.1,0.3,0.1,0.5,0.2,0.7c1.1,3,2.2,6,3.3,9
		c0.2,0.5,0.2,0.9-0.1,1.4c-0.1,0.2-0.3,0.5-0.4,0.7c-0.4,0.6-1,0.9-1.7,0.9c-0.4,0-0.8-0.1-1.3-0.1
		C137.9,38.6,137.7,39.1,137.6,39.8z M107.4,35.8c0-1.4,0-2.7,0-4c0-1.1,0-2.1-0.1-3.2c-0.2-1.6-1.1-2.9-2.8-3.1
		c-0.7-0.1-1.5-0.1-2.2-0.1c-1,0.1-2,0.3-2.9,0.7c0.1,0.6,0.3,1.2,0.4,1.7c0.5-0.2,1-0.4,1.5-0.5c0.5-0.1,0.9-0.2,1.4-0.2
		c1.6-0.2,2.7,1,2.3,2.5c-0.6,0-1.1-0.1-1.7-0.1c-0.6,0-1.1,0.1-1.7,0.1c-1.7,0.2-2.8,1.2-3,2.8c-0.2,1.6,0.5,3.1,2.3,3.4
		c1.4,0.3,2.6,0,3.7-0.9c0.1-0.1,0.3-0.2,0.5-0.3c0.1,0.4,0.1,0.8,0.2,1.1C105.9,35.8,106.6,35.8,107.4,35.8z M128.4,33.5
		c-0.5,0.2-0.9,0.3-1.3,0.4c-0.4,0.1-0.9,0.2-1.4,0.2c-2,0.2-3.3-1.2-3.2-3.1c1.1,0,2.1,0,3.2,0c1.1,0,2.2,0,3.3,0
		c0.2-1.3,0-2.7-0.6-3.7c-0.4-0.7-1-1.2-1.7-1.6c-1.9-0.8-5-0.5-6.1,2.3c-0.6,1.5-0.7,3-0.3,4.6c0.4,1.8,1.6,2.9,3.4,3.2
		c1,0.2,2.1,0.2,3.1,0c0.7-0.1,1.4-0.3,2.1-0.7C128.7,34.6,128.5,34.1,128.4,33.5z M117.6,21c-0.9,0.1-1.6,0.1-2.4,0.2
		c0,0.2,0,0.3,0,0.5c0,3.8,0,7.6,0,11.3c0,0.3,0,0.6,0,0.9c0.1,0.8,0.3,1.5,1.1,1.8c1,0.5,2,0.3,3.1,0c-0.1-0.6-0.2-1.1-0.3-1.7
		c-0.2,0-0.3,0-0.4,0c-0.7,0-1.1-0.2-1.1-1c0-0.2,0-0.4,0-0.5c0-3.6,0-7.2,0-10.7C117.6,21.5,117.6,21.3,117.6,21z M113.3,34
		c-1.4,0.1-1.5-0.1-1.5-1.4c0-0.1,0-0.2,0-0.3c0-3.5,0-7.1,0-10.6c0-0.2,0-0.5,0-0.7c-0.9,0.1-1.6,0.1-2.4,0.2c0,0.2,0,0.3,0,0.4
		c0,3.9,0,7.9,0,11.8c0,0.2,0,0.4,0,0.7c0.1,0.9,0.7,1.6,1.5,1.8c0.9,0.2,1.7,0.1,2.6-0.2C113.4,35.1,113.4,34.6,113.3,34z
		 M137.1,25.4c-0.6,0-1.1-0.1-1.6,0c-1,0.2-1.6,1-2.3,1.9c-0.1-0.7-0.1-1.2-0.2-1.8c-0.8,0-1.5,0-2.2,0c0,3.4,0,6.8,0,10.2
		c0.8,0,1.6,0,2.4,0c0-2,0-4,0-6c0-0.2,0-0.4,0.1-0.6c0.7-1,1.4-1.8,2.7-1.7c0.2,0,0.5,0,0.7,0C136.9,26.8,137,26.2,137.1,25.4z
		 M116.9,10.7c0,0,0.1,0,0.1,0c1.1,1.7,2.2,3.5,3.3,5.2c0.5,0,0.9,0,1.4,0c0-2.4,0-4.8,0-7.1c-0.4,0-0.8,0-1.2,0c0,1.7,0,3.4,0,5.1
		c0,0-0.1,0-0.1,0c-1.1-1.7-2.2-3.4-3.3-5.1c-0.5,0-1,0-1.5,0c0,2.4,0,4.8,0,7.1c0.4,0,0.8,0,1.2,0
		C116.9,14.1,116.9,12.4,116.9,10.7z M110.7,16c2,0,3.3-1,3.7-3c0.1-0.4,0.1-0.9,0-1.4c-0.2-1.4-0.8-2.4-2.1-2.9
		c-0.9-0.3-1.9-0.3-2.8,0.1c-1.5,0.5-2.1,1.7-2.2,3.2C107,14.6,108.6,16,110.7,16z M79,12.2C79,12.2,78.9,12.2,79,12.2
		c-0.1-0.2-0.1-0.4-0.1-0.5c-0.1-1.5-1-2.6-2.5-3c-0.4-0.1-0.8-0.1-1.2-0.1c-1.7,0-3,1.1-3.3,2.7c-0.1,0.5-0.1,1-0.1,1.6
		c0.1,1.6,1,2.6,2.4,3c1.7,0.4,3.3-0.1,4.2-1.4c0.1-0.2,0.2-0.4,0.3-0.6C78.8,13.4,78.9,12.8,79,12.2z M80.3,8.7c0,2.4,0,4.8,0,7.1
		c0.4,0,0.8,0,1.3,0c0-0.9,0-1.9,0-2.8c0.3,0,0.6,0,0.8,0c0.6,0.9,1.2,1.8,1.8,2.7c0.5,0,1,0,1.5,0c-0.7-1.1-1.4-2.1-2.1-3.1
		c0.3-0.2,0.5-0.3,0.7-0.5c0.7-0.6,0.9-1.4,0.7-2.3c-0.2-0.8-0.9-1.2-1.6-1.2C82.3,8.7,81.3,8.7,80.3,8.7z M60.5,15.8
		c-0.8-1.3-1.6-2.5-2.4-3.7c0.7-1.2,1.5-2.2,2.1-3.5c-0.5,0-1,0-1.4,0c-0.5,0.8-1,1.6-1.5,2.5c-0.5-0.9-1-1.7-1.5-2.5
		c-0.5,0-0.9,0-1.5,0c0.8,1.2,1.5,2.3,2.2,3.5c-0.8,1.2-1.6,2.4-2.4,3.6c0.6,0,1,0,1.5,0c0.6-0.9,1.1-1.8,1.7-2.7
		c0.6,1,1.1,1.9,1.7,2.7C59.5,15.8,59.9,15.8,60.5,15.8z M53.7,14.8c-1,0-2,0-2.9,0c0-0.7,0-1.4,0-2.1c0.9,0,1.7,0,2.6,0
		c0-0.4,0-0.7,0-1c-0.9,0-1.7,0-2.6,0c0-0.6,0-1.2,0-1.9c0.9,0,1.9,0,2.8,0c0-0.4,0.1-0.7,0.1-1c-1.5,0-2.8,0-4.2,0
		c0,2.4,0,4.8,0,7.1c1.4,0,2.8,0,4.2,0C53.7,15.5,53.7,15.2,53.7,14.8z M88,12.7c0.9,0,1.8,0,2.6,0c0-0.4,0-0.7,0-1
		c-0.9,0-1.7,0-2.6,0c0-0.7,0-1.3,0-1.9c0.9,0,1.8,0,2.8,0c0-0.4,0.1-0.7,0.1-1c-1.4,0-2.8,0-4.2,0c0,2.4,0,4.8,0,7.1
		c1.4,0,2.8,0,4.2,0c0-0.4,0-0.7,0.1-1.1c-1,0-2,0-2.9,0C88,14,88,13.4,88,12.7z M61.3,8.7c0,2.4,0,4.8,0,7.1c0.4,0,0.8,0,1.3,0
		c0-0.9,0-1.8,0-2.6c0.5,0,0.9,0,1.3,0c1.2-0.1,2.1-1,2.2-2.2c0.1-1.3-0.7-2.1-2-2.3C63.2,8.6,62.3,8.7,61.3,8.7z M100,9.7
		c0,2.1,0,4.1,0,6.1c0.4,0,0.8,0,1.3,0c0-2,0-4,0-6.1c0.7,0,1.4,0,2.1,0c0-0.4,0-0.7,0.1-1c-1.9,0-3.7,0-5.6,0c0,0.3-0.1,0.7-0.1,1
		C98.5,9.7,99.2,9.7,100,9.7z M68.6,14.8c0-2.1,0-4.1,0-6c-0.5,0-0.9,0-1.3,0c0,2.4,0,4.7,0,7.1c1.4,0,2.7,0,4.1,0
		c0-0.4,0.1-0.7,0.1-1.1C70.5,14.8,69.6,14.8,68.6,14.8z M95.5,8.7c0,2.4,0,4.8,0,7.1c0.4,0,0.8,0,1.2,0c0-2.4,0-4.8,0-7.1
		C96.3,8.7,95.9,8.7,95.5,8.7z"/>
	<path class="st1" d="M0,38.4c0-9.7,0-19.3,0-29C0,8.8,0.1,7.7,0.1,7l0,0c0.4-3.3,2.5-5.9,5.7-6.7C6,0.3,6.2,0.2,6.4,0.2
		C7.1,0.1,7.7,0,8.3,0l141.5,0c0.6,0,1.2,0,1.8,0.1v0c1.6,0.3,3.1,0.9,4.3,2.1c1.5,1.5,2.2,3.3,2.4,5.3l0,0c0.1,0.4,0.1,0.9,0.1,1.3
		c0,10.1,0,19.4,0,29.4c0,0.5,0,1,0,1.5l0,0.2c-0.1,1.2-0.4,2.5-1,3.6c-1.4,2.5-3.7,3.7-6.5,3.9c0,0,0,0,0,0c-0.5,0.1-1,0.1-1.5,0.1
		H9.5c-0.7,0-1.8-0.1-2.4-0.1l0,0c-3.4-0.4-6.2-2.9-6.8-6.3l0,0C0.1,40.2,0,39.3,0,38.4z M10,1.1c-0.9,0-1.9,0-2.8,0.1
		C4.4,1.5,2.6,3,1.6,5.5C1.2,6.7,1.1,7.9,1.1,9.1c0,9.2,0,18.3,0,27.5c0,1.2,0,2.4,0.1,3.6c0.3,3.3,2.5,5.3,4.9,5.9
		c1.2,0.3,2.4,0.4,3.7,0.4l137.9,0c1.1,0,2.2,0,3.4-0.1c2.8-0.2,5.2-2.1,5.8-4.8c0.3-1.1,0.4-2.2,0.4-3.3c0-9.3,0-18.6,0-28
		c0-1,0-2-0.1-3c-0.3-3.4-2.7-5.3-4.8-5.8c-1.1-0.3-2.2-0.4-3.4-0.4L10,1.1z"/>
	<path class="st2" d="M25.5,8.6c2.3,0,4.6,0,6.9,0c1,0,2.1,0.1,3.1,0.3c2.7,0.5,4.3,2.3,4.8,5c0.2,0.9,0.3,1.9,0.3,2.8
		c0,4.7,0,9.3,0,14c0,1.1-0.1,2.2-0.4,3.2c-0.5,2.6-2.1,4.1-4.7,4.6c-1.1,0.2-2.1,0.3-3.2,0.3c-4.6,0-9.1,0-13.7,0
		c-1.1,0-2.2-0.1-3.3-0.3c-2.6-0.5-4.1-2.2-4.6-4.7c-0.2-0.8-0.3-1.6-0.3-2.4c0-5.1,0-10.2,0-15.4c0-1,0.2-2.1,0.5-3.1
		c0.5-2,1.9-3.2,3.9-3.8c1.2-0.4,2.5-0.5,3.7-0.5C20.9,8.6,23.2,8.6,25.5,8.6z M20.5,13.7c0.1,1.9,0.9,3.3,2.5,4.3
		c1.8,1,3.6,1,5.3-0.1c1.5-1,2.2-2.4,2.3-4.2c-0.3,0-0.5,0-0.7,0c-0.4,2.6-2,4.2-4.3,4.3c-2.3,0-3.9-1.5-4.5-4.3
		C20.9,13.7,20.7,13.7,20.5,13.7z M27.8,26.2c-0.1,0-0.1,0-0.2,0c-0.3-0.8-0.5-1.6-0.8-2.4c-0.3,0-0.6,0-0.9,0
		c0.5,1.3,0.9,2.6,1.4,3.9c0.3,0,0.5,0,0.7,0c0.3-0.8,0.6-1.6,0.8-2.4c0,0,0.1,0,0.1,0c0.3,0.8,0.6,1.6,0.8,2.3c0.2,0,0.4,0,0.7,0
		c0.4-1.3,0.9-2.6,1.4-3.9c-0.3,0-0.6,0-0.8,0c-0.3,0.8-0.6,1.6-0.8,2.5c0,0-0.1,0-0.1,0c-0.3-0.8-0.5-1.6-0.8-2.4
		c-0.2,0-0.4,0-0.7,0C28.3,24.6,28.1,25.4,27.8,26.2z M13.8,23.8c0,1.3,0,2.6,0,3.9c0.3,0,0.5,0,0.8,0c0-0.5,0-1,0-1.5
		c0.6,0,1.2,0,1.8,0c0,0.5,0,1,0,1.5c0.3,0,0.5,0,0.7,0c0-1.3,0-2.6,0-3.9c-0.2,0-0.5,0-0.8,0c0,0.5,0,1,0,1.5c-0.6,0-1.2,0-1.8,0
		c0-0.5,0-1,0-1.5C14.3,23.8,14.1,23.8,13.8,23.8z M35.4,24.4c0-0.3,0-0.5,0-0.7c-1,0-1.9,0-2.8,0c0,1.3,0,2.6,0,3.9c1,0,2,0,2.9,0
		c0-0.3,0-0.5-0.1-0.7c-0.7,0-1.4,0-2.1,0c0-0.3,0-0.6,0-0.9c0.5,0,0.9,0,1.4,0c0-0.3,0-0.5,0-0.8c-0.5,0-0.9,0-1.4,0
		c0-0.3,0-0.5,0-0.8C34.1,24.4,34.7,24.4,35.4,24.4z M18.3,23.8c0,0.9-0.1,1.8,0,2.6c0.1,0.8,0.7,1.3,1.5,1.3c0.9,0,1.6-0.4,1.7-1.2
		c0.2-0.9,0.1-1.9,0.1-2.8c-0.3,0-0.6,0-0.8,0c0,0.3,0,0.6,0,0.9c0,0.5,0,1,0,1.4c-0.1,0.6-0.5,0.9-1.1,0.8
		c-0.4-0.1-0.7-0.4-0.7-0.9c0-0.7,0-1.5,0-2.3C18.8,23.8,18.6,23.8,18.3,23.8z M23.8,23.8c-0.6,1.3-1.1,2.6-1.7,3.9
		c0.3,0,0.6,0,0.8,0c0.1-0.3,0.2-0.5,0.4-0.8c0.6,0,1.2,0,1.8,0c0.1,0.3,0.3,0.5,0.4,0.7c0.3,0,0.5,0,0.8,0
		c-0.6-1.3-1.2-2.6-1.7-3.9C24.3,23.8,24.1,23.8,23.8,23.8z M37.2,27.7c0-1.3,0-2.6,0-3.9c-0.3,0-0.5,0-0.7,0c0,1.3,0,2.6,0,3.9
		C36.7,27.7,36.9,27.7,37.2,27.7z"/>
	<path class="st1" d="M96.8,34.8c-1,0.5-2.1,0.8-3.3,1c-1.3,0.2-2.7,0.2-4-0.1c-2.5-0.7-4-2.5-4.4-5c-0.3-1.4-0.2-2.8,0.2-4.1
		c0.8-2.8,2.8-4.3,5.5-4.7c1.9-0.3,3.8,0,5.6,0.9c-0.2,0.6-0.4,1.2-0.6,1.9c-0.3-0.1-0.6-0.2-0.8-0.3c-1.2-0.4-2.4-0.7-3.7-0.5
		c-2,0.4-3.3,1.5-3.7,3.5c-0.3,1.2-0.2,2.5,0.1,3.7c0.5,1.7,1.7,2.7,3.5,2.9c1.1,0.1,2.1,0,3.2-0.4c0-0.9,0-1.7,0-2.7
		c-1,0-2,0-3.1,0c0-0.6,0-1.2,0-1.9c1.8,0,3.6,0,5.4,0C96.8,31,96.8,32.9,96.8,34.8z"/>
	<path class="st1" d="M76.9,35.7c0,1.4,0,2.8,0,4.1c-0.8,0.1-1.6,0.1-2.4,0.2c0-4.9,0-9.7,0-14.5c0.7,0,1.4,0,2.2,0
		c0.1,0.3,0.1,0.7,0.2,1.1c0.2-0.2,0.5-0.4,0.7-0.5c1-0.7,2-0.9,3.2-0.7c1.5,0.3,2.4,1.3,2.8,2.8c0.4,1.5,0.4,3.1-0.1,4.6
		c-0.7,2.3-2.8,3.5-5.2,3.2C77.8,35.9,77.4,35.8,76.9,35.7z M76.9,33.8c0.4,0.1,0.7,0.2,1.1,0.3c1.4,0.2,2.5-0.3,3-1.6
		c0.5-1.3,0.5-2.7,0.1-4c-0.2-0.7-0.8-1.2-1.6-1.3c-1-0.1-1.8,0.4-2.4,1.1c-0.1,0.1-0.1,0.2-0.1,0.4C76.9,30.4,76.9,32.1,76.9,33.8z
		"/>
	<path class="st1" d="M62.7,35.7c-0.9,0-1.7,0-2.6,0c-0.5-1.2-0.9-2.4-1.4-3.6c-1.8,0-3.6,0-5.4,0c-0.4,1.2-0.9,2.4-1.3,3.6
		c-0.8,0-1.6,0-2.5,0c1.8-4.6,3.6-9.1,5.4-13.7c0.8,0,1.6,0,2.4,0C59,26.6,60.8,31.1,62.7,35.7z M56,24.8c-0.7,1.8-1.3,3.6-1.9,5.3
		c1.3,0.1,3.4,0.1,3.9-0.1C57.3,28.3,56.6,26.6,56,24.8z"/>
	<path class="st1" d="M66.1,35.7c0,1.4,0,2.7,0,4.1c-0.8,0.1-1.6,0.1-2.4,0.2c0-4.9,0-9.7,0-14.5c0.7,0,1.4,0,2.2,0
		c0.1,0.3,0.1,0.7,0.2,1.1c0.2-0.1,0.3-0.2,0.4-0.3c2.3-1.9,5.4-1,6.2,1.9c0.4,1.6,0.4,3.3-0.2,4.9c-0.8,2.1-2.8,3.1-5,2.9
		C67.1,35.9,66.6,35.8,66.1,35.7z M66.1,33.7c1.9,1,3.8,0.3,4.3-1.7c0.3-1,0.3-2.1,0-3.1c-0.2-0.9-0.7-1.5-1.7-1.6
		c-0.8-0.1-2.1,0.4-2.5,1.1c-0.1,0.1-0.1,0.2-0.1,0.4C66.1,30.4,66.1,32.1,66.1,33.7z"/>
	<path class="st1" d="M137.6,39.8c0.2-0.6,0.3-1.2,0.4-1.7c0.4,0,0.9,0.1,1.3,0.1c0.7,0,1.3-0.3,1.7-0.9c0.2-0.2,0.3-0.5,0.4-0.7
		c0.3-0.4,0.3-0.9,0.1-1.4c-1.1-3-2.2-6-3.3-9c-0.1-0.2-0.1-0.4-0.2-0.7c0.9,0,1.7,0,2.6,0c0.8,2.5,1.6,5,2.5,7.6
		c0.8-2.6,1.7-5.1,2.5-7.6c0.8,0,1.6,0,2.4,0c-0.1,0.2-0.1,0.4-0.2,0.6c-1.2,3.2-2.3,6.5-3.6,9.7c-0.3,0.8-0.6,1.5-1,2.2
		c-0.7,1.2-1.8,1.9-3.2,1.9C139.2,40.1,138.4,40,137.6,39.8z"/>
	<path class="st1" d="M107.4,35.8c-0.7,0-1.4,0-2.2,0c-0.1-0.3-0.1-0.7-0.2-1.1c-0.2,0.1-0.3,0.2-0.5,0.3c-1.1,0.9-2.3,1.2-3.7,0.9
		c-1.8-0.4-2.5-1.9-2.3-3.4c0.2-1.6,1.3-2.5,3-2.8c0.6-0.1,1.1-0.1,1.7-0.1c0.6,0,1.1,0.1,1.7,0.1c0.3-1.6-0.7-2.7-2.3-2.5
		c-0.5,0-1,0.1-1.4,0.2c-0.5,0.1-0.9,0.3-1.5,0.5c-0.1-0.6-0.3-1.1-0.4-1.7c1-0.5,1.9-0.7,2.9-0.7c0.7,0,1.5,0,2.2,0.1
		c1.8,0.2,2.7,1.5,2.8,3.1c0.1,1,0.1,2.1,0.1,3.2C107.4,33.1,107.4,34.4,107.4,35.8z M104.9,31.2c-0.2,0-0.4-0.1-0.6-0.1
		c-0.8-0.1-1.7-0.1-2.5,0.2c-0.8,0.3-1.1,1-1,1.9c0.1,0.7,0.7,1.1,1.5,1c0.9-0.1,1.6-0.4,2.2-1c0.1-0.1,0.2-0.3,0.2-0.5
		C105,32.2,104.9,31.7,104.9,31.2z"/>
	<path class="st1" d="M128.4,33.5c0.2,0.6,0.3,1.1,0.5,1.6c-0.7,0.4-1.4,0.6-2.1,0.7c-1,0.2-2.1,0.2-3.1,0c-1.8-0.4-3-1.4-3.4-3.2
		c-0.4-1.6-0.3-3.1,0.3-4.6c1.2-2.8,4.3-3.1,6.1-2.3c0.7,0.3,1.3,0.9,1.7,1.6c0.6,1,0.9,2.4,0.6,3.7c-1.1,0-2.2,0-3.3,0
		c-1.1,0-2.1,0-3.2,0c-0.2,1.9,1.2,3.3,3.2,3.1c0.5,0,0.9-0.1,1.4-0.2C127.4,33.8,127.8,33.6,128.4,33.5z M126.6,29.4
		c0-1.4-0.7-2.3-1.9-2.3c-1.2,0-2.2,0.9-2.2,2.3C123.9,29.4,125.2,29.4,126.6,29.4z"/>
	<path class="st1" d="M117.6,21c0,0.3,0,0.5,0,0.8c0,3.6,0,7.2,0,10.7c0,0.2,0,0.4,0,0.5c0,0.7,0.3,1,1.1,1c0.1,0,0.3,0,0.4,0
		c0.1,0.6,0.2,1.1,0.3,1.7c-1,0.3-2.1,0.5-3.1,0c-0.8-0.3-1-1-1.1-1.8c0-0.3,0-0.6,0-0.9c0-3.8,0-7.6,0-11.3c0-0.1,0-0.3,0-0.5
		C115.9,21.1,116.7,21.1,117.6,21z"/>
	<path class="st1" d="M113.3,34c0.1,0.6,0.2,1.1,0.2,1.7c-0.9,0.3-1.8,0.4-2.6,0.2c-0.8-0.2-1.4-0.9-1.5-1.8c0-0.2,0-0.4,0-0.7
		c0-3.9,0-7.9,0-11.8c0-0.1,0-0.2,0-0.4c0.8-0.1,1.5-0.1,2.4-0.2c0,0.3,0,0.5,0,0.7c0,3.5,0,7.1,0,10.6c0,0.1,0,0.2,0,0.3
		C111.7,33.9,111.9,34.1,113.3,34z"/>
	<path class="st1" d="M137.1,25.4c-0.1,0.8-0.2,1.4-0.3,2.1c-0.2,0-0.5,0-0.7,0c-1.3-0.1-2.1,0.8-2.7,1.7c-0.1,0.1-0.1,0.4-0.1,0.6
		c0,2,0,3.9,0,6c-0.8,0-1.5,0-2.4,0c0-3.4,0-6.7,0-10.2c0.7,0,1.4,0,2.2,0c0.1,0.5,0.1,1.1,0.2,1.8c0.6-0.9,1.2-1.7,2.3-1.9
		C136,25.3,136.5,25.4,137.1,25.4z"/>
	<path class="st1" d="M116.9,10.7c0,1.7,0,3.4,0,5.1c-0.4,0-0.8,0-1.2,0c0-2.4,0-4.7,0-7.1c0.5,0,1,0,1.5,0c1.1,1.7,2.2,3.4,3.3,5.1
		c0,0,0.1,0,0.1,0c0-1.7,0-3.4,0-5.1c0.4,0,0.8,0,1.2,0c0,2.4,0,4.7,0,7.1c-0.5,0-0.9,0-1.4,0c-1.1-1.7-2.2-3.5-3.3-5.2
		C117,10.7,117,10.7,116.9,10.7z"/>
	<path class="st1" d="M110.7,16c-2.1,0.1-3.7-1.4-3.5-4c0.1-1.5,0.7-2.7,2.2-3.2c0.9-0.3,1.9-0.4,2.8-0.1c1.4,0.5,2,1.5,2.1,2.9
		c0.1,0.5,0,0.9,0,1.4C114,15,112.7,16,110.7,16z M108.6,12.2c0,0.2,0,0.4,0,0.7c0.1,1.1,0.9,2,1.9,2c1.2,0.1,2.1-0.5,2.4-1.6
		c0.2-0.7,0.2-1.5,0-2.2c-0.4-1.2-1.5-1.7-2.7-1.4C109.2,10,108.6,10.9,108.6,12.2z"/>
	<path class="st1" d="M79,12.2c-0.1,0.6-0.2,1.1-0.4,1.7c-0.1,0.2-0.2,0.4-0.3,0.6c-0.8,1.3-2.5,1.8-4.2,1.4c-1.4-0.4-2.3-1.4-2.4-3
		c0-0.5,0-1.1,0.1-1.6c0.3-1.6,1.6-2.7,3.3-2.7c0.4,0,0.8,0,1.2,0.1c1.5,0.3,2.4,1.5,2.5,3C78.9,11.8,78.9,12,79,12.2
		C78.9,12.2,79,12.2,79,12.2z M73,12.1c0.1,0.5,0.2,1,0.3,1.4c0.3,0.9,1,1.3,1.9,1.3c1,0,1.7-0.4,2.1-1.3c0.3-0.8,0.4-1.7,0.1-2.6
		c-0.3-0.8-0.8-1.3-1.7-1.4c-0.9-0.1-1.7,0.2-2.2,1C73.3,11.1,73.2,11.7,73,12.1z"/>
	<path class="st1" d="M80.3,8.7c1,0,2.1-0.1,3.1,0c0.8,0.1,1.4,0.4,1.6,1.2c0.2,0.9,0.1,1.7-0.7,2.3c-0.2,0.2-0.4,0.3-0.7,0.5
		c0.7,1,1.4,2,2.1,3.1c-0.6,0-1,0-1.5,0c-0.6-0.9-1.2-1.8-1.8-2.7c-0.3,0-0.5,0-0.8,0c0,0.9,0,1.8,0,2.8c-0.5,0-0.9,0-1.3,0
		C80.3,13.5,80.3,11.1,80.3,8.7z M81.6,12c0.3,0,0.6,0,0.9,0c0.4,0,0.8-0.2,1-0.5c0.5-0.7,0.2-1.6-0.6-1.7c-0.4-0.1-0.8-0.1-1.2-0.1
		C81.6,10.5,81.6,11.2,81.6,12z"/>
	<path class="st1" d="M60.5,15.8c-0.5,0-1,0-1.5,0c-0.5-0.8-1.1-1.7-1.7-2.7c-0.6,0.9-1.1,1.8-1.7,2.7c-0.4,0-0.9,0-1.5,0
		c0.8-1.2,1.6-2.4,2.4-3.6c-0.7-1.2-1.4-2.3-2.2-3.5c0.5,0,1,0,1.5,0c0.5,0.8,0.9,1.6,1.5,2.5c0.5-0.9,1-1.6,1.5-2.5
		c0.4,0,0.9,0,1.4,0c-0.6,1.2-1.4,2.3-2.1,3.5C58.9,13.4,59.6,14.6,60.5,15.8z"/>
	<path class="st1" d="M53.7,14.8c0,0.4,0,0.7-0.1,1.1c-1.4,0-2.8,0-4.2,0c0-2.4,0-4.7,0-7.1c1.4,0,2.7,0,4.2,0c0,0.3-0.1,0.7-0.1,1
		c-1,0-1.9,0-2.8,0c0,0.6,0,1.2,0,1.9c0.9,0,1.7,0,2.6,0c0,0.4,0,0.7,0,1c-0.8,0-1.7,0-2.6,0c0,0.7,0,1.4,0,2.1
		C51.7,14.8,52.7,14.8,53.7,14.8z"/>
	<path class="st1" d="M88,12.7c0,0.7,0,1.4,0,2.1c0.9,0,1.9,0,2.9,0c0,0.4,0,0.7-0.1,1.1c-1.4,0-2.8,0-4.2,0c0-2.4,0-4.7,0-7.1
		c1.4,0,2.8,0,4.2,0c0,0.3-0.1,0.7-0.1,1c-1,0-1.9,0-2.8,0c0,0.6,0,1.2,0,1.9c0.9,0,1.7,0,2.6,0c0,0.4,0,0.7,0,1
		C89.8,12.7,88.9,12.7,88,12.7z"/>
	<path class="st1" d="M61.3,8.7c1,0,1.9-0.1,2.8,0c1.3,0.1,2,1,2,2.3c-0.1,1.2-0.9,2.1-2.2,2.2c-0.4,0-0.8,0-1.3,0
		c0,0.9,0,1.7,0,2.6c-0.5,0-0.8,0-1.3,0C61.3,13.5,61.3,11.1,61.3,8.7z M62.6,12.1c0.8,0.3,1.5,0.1,1.9-0.3c0.3-0.4,0.4-1.1,0.1-1.5
		c-0.5-0.7-1.2-0.6-2-0.6C62.6,10.5,62.6,11.3,62.6,12.1z"/>
	<path class="st1" d="M100,9.7c-0.8,0-1.5,0-2.2,0c0-0.4,0.1-0.7,0.1-1c1.9,0,3.7,0,5.6,0c0,0.3,0,0.7-0.1,1c-0.7,0-1.4,0-2.1,0
		c0,2.1,0,4,0,6.1c-0.5,0-0.9,0-1.3,0C100,13.8,100,11.8,100,9.7z"/>
	<path class="st1" d="M68.6,14.8c1,0,2,0,2.9,0c0,0.4-0.1,0.7-0.1,1.1c-1.4,0-2.7,0-4.1,0c0-2.4,0-4.7,0-7.1c0.4,0,0.8,0,1.3,0
		C68.6,10.7,68.6,12.7,68.6,14.8z"/>
	<path class="st1" d="M95.5,8.7c0.4,0,0.8,0,1.2,0c0,2.4,0,4.7,0,7.1c-0.4,0-0.8,0-1.2,0C95.5,13.5,95.5,11.1,95.5,8.7z"/>
	<path class="st0" d="M20.5,13.7c0.3,0,0.5,0,0.7,0c0.5,2.8,2.1,4.3,4.5,4.3c2.3,0,3.9-1.6,4.3-4.3c0.2,0,0.4,0,0.7,0
		c0,1.8-0.8,3.2-2.3,4.2C26.5,19,24.7,19,23,18C21.4,17.1,20.6,15.6,20.5,13.7z"/>
	<path class="st0" d="M27.8,26.2c0.3-0.8,0.5-1.6,0.8-2.4c0.2,0,0.4,0,0.7,0c0.3,0.8,0.5,1.6,0.8,2.4c0,0,0.1,0,0.1,0
		c0.3-0.8,0.5-1.6,0.8-2.5c0.3,0,0.5,0,0.8,0c-0.5,1.3-0.9,2.6-1.4,3.9c-0.2,0-0.4,0-0.7,0c-0.3-0.8-0.6-1.6-0.8-2.3
		c0,0-0.1,0-0.1,0c-0.3,0.8-0.5,1.5-0.8,2.4c-0.2,0-0.4,0-0.7,0c-0.5-1.3-0.9-2.6-1.4-3.9c0.3,0,0.6,0,0.9,0
		c0.3,0.8,0.5,1.6,0.8,2.4C27.7,26.2,27.7,26.2,27.8,26.2z"/>
	<path class="st0" d="M13.8,23.8c0.2,0,0.5,0,0.8,0c0,0.5,0,1,0,1.5c0.6,0,1.2,0,1.8,0c0-0.5,0-1,0-1.5c0.3,0,0.5,0,0.8,0
		c0,1.3,0,2.6,0,3.9c-0.2,0-0.5,0-0.7,0c0-0.5,0-1,0-1.5c-0.6,0-1.2,0-1.8,0c0,0.5,0,1,0,1.5c-0.3,0-0.5,0-0.8,0
		C13.8,26.4,13.8,25.1,13.8,23.8z"/>
	<path class="st0" d="M35.4,24.4c-0.7,0-1.3,0-2,0c0,0.3,0,0.5,0,0.8c0.5,0,0.9,0,1.4,0c0,0.3,0,0.5,0,0.8c-0.5,0-0.9,0-1.4,0
		c0,0.3,0,0.6,0,0.9c0.7,0,1.4,0,2.1,0c0,0.3,0,0.5,0.1,0.7c-1,0-1.9,0-2.9,0c0-1.3,0-2.6,0-3.9c0.9,0,1.9,0,2.8,0
		C35.4,24,35.4,24.2,35.4,24.4z"/>
	<path class="st0" d="M18.3,23.8c0.2,0,0.5,0,0.8,0c0,0.8,0,1.5,0,2.3c0,0.5,0.2,0.8,0.7,0.9c0.6,0.1,1-0.2,1.1-0.8c0-0.5,0-1,0-1.4
		c0-0.3,0-0.6,0-0.9c0.3,0,0.5,0,0.8,0c0,1,0.1,1.9-0.1,2.8c-0.2,0.8-0.8,1.2-1.7,1.2c-0.9,0-1.5-0.5-1.5-1.3
		C18.3,25.5,18.3,24.7,18.3,23.8z"/>
	<path class="st0" d="M23.8,23.8c0.3,0,0.5,0,0.7,0c0.6,1.3,1.1,2.5,1.7,3.9c-0.3,0-0.6,0-0.8,0c-0.1-0.2-0.3-0.5-0.4-0.7
		c-0.6,0-1.2,0-1.8,0c-0.1,0.3-0.2,0.5-0.4,0.8c-0.2,0-0.5,0-0.8,0C22.7,26.3,23.3,25.1,23.8,23.8z M24.2,24.8
		c-0.2,0.5-0.4,0.9-0.6,1.3c0.4,0,0.7,0,1.1,0C24.6,25.7,24.4,25.3,24.2,24.8z"/>
	<path class="st0" d="M37.2,27.7c-0.3,0-0.4,0-0.7,0c0-1.3,0-2.6,0-3.9c0.2,0,0.4,0,0.7,0C37.2,25.1,37.2,26.3,37.2,27.7z"/>
	<path class="st0" d="M76.9,33.8c0-1.8,0-3.5,0-5.2c0-0.1,0-0.3,0.1-0.4c0.7-0.7,1.4-1.2,2.4-1.1c0.8,0.1,1.3,0.6,1.6,1.3
		c0.4,1.3,0.4,2.7-0.1,4c-0.5,1.2-1.6,1.8-3,1.6C77.6,34.1,77.3,34,76.9,33.8z"/>
	<path class="st0" d="M56,24.8c0.7,1.8,1.3,3.5,1.9,5.2c-0.4,0.2-2.6,0.2-3.9,0.1C54.7,28.4,55.3,26.6,56,24.8z"/>
	<path class="st0" d="M66.1,33.7c0-1.7,0-3.4,0-5c0-0.1,0-0.3,0.1-0.4c0.4-0.7,1.7-1.2,2.5-1.1c0.9,0.2,1.4,0.8,1.7,1.6
		c0.3,1,0.3,2.1,0,3.1C69.9,34,68,34.8,66.1,33.7z"/>
	<path class="st0" d="M104.9,31.2c0,0.5,0,1,0,1.5c0,0.2-0.1,0.3-0.2,0.5c-0.6,0.6-1.4,1-2.2,1c-0.8,0-1.4-0.4-1.5-1
		c-0.2-0.8,0.2-1.6,1-1.9c0.8-0.3,1.6-0.3,2.5-0.2C104.6,31.1,104.7,31.1,104.9,31.2z"/>
	<path class="st0" d="M126.6,29.4c-1.4,0-2.8,0-4.1,0c0-1.4,1-2.4,2.2-2.3C125.9,27.1,126.7,28,126.6,29.4z"/>
	<path class="st0" d="M108.6,12.2c0-1.3,0.6-2.2,1.6-2.5c1.2-0.4,2.3,0.2,2.7,1.4c0.2,0.7,0.3,1.5,0,2.2c-0.3,1.1-1.2,1.7-2.4,1.6
		c-1-0.1-1.8-0.9-1.9-2C108.6,12.7,108.6,12.4,108.6,12.2z"/>
	<path class="st0" d="M73,12.1c0.2-0.5,0.3-1,0.5-1.5c0.5-0.8,1.3-1.1,2.2-1c0.8,0.1,1.4,0.6,1.7,1.4c0.3,0.9,0.3,1.7-0.1,2.6
		c-0.4,0.9-1.1,1.3-2.1,1.3c-0.9,0-1.6-0.5-1.9-1.3C73.2,13.1,73.1,12.7,73,12.1z"/>
	<path class="st0" d="M81.6,12c0-0.8,0-1.5,0-2.4c0.4,0,0.8,0,1.2,0.1c0.9,0.2,1.2,1,0.6,1.7c-0.2,0.3-0.6,0.5-1,0.5
		C82.2,12,81.9,12,81.6,12z"/>
	<path class="st0" d="M62.6,12.1c0-0.8,0-1.5,0-2.4c0.7,0,1.5-0.1,2,0.6c0.3,0.4,0.2,1.1-0.1,1.5C64.1,12.2,63.4,12.3,62.6,12.1z"/>
	<path class="st2" d="M24.2,24.8c0.2,0.5,0.4,0.9,0.6,1.3c-0.4,0-0.7,0-1.1,0C23.8,25.7,24,25.3,24.2,24.8z"/>
</g>
</svg>
